<svg xmlns="http://www.w3.org/2000/svg" viewBox="0 0 200 200"><defs><linearGradient id="bg" x1="0" y1="0" x2="1" y2="1"><stop offset="0" stop-color="#7fb4ff"/><stop offset="1" stop-color="#4f8ef7"/></linearGradient></defs>
  <rect width="200" height="200" rx="46" fill="url(#bg)"/>
  <g transform="translate(10 18) scale(0.9)">
  <circle cx="57" cy="52" r="14" fill="#9a6440"/><circle cx="57" cy="52" r="7" fill="#74462a"/>
  <circle cx="143" cy="52" r="14" fill="#9a6440"/><circle cx="143" cy="52" r="7" fill="#74462a"/>
  <circle cx="100" cy="92" r="56" fill="#9a6440"/>
  <ellipse cx="100" cy="103" rx="45" ry="36" fill="#f6e2c8"/>
  <ellipse cx="80" cy="88" rx="7.5" ry="9.5" fill="#3d2a20"/><ellipse cx="120" cy="88" rx="7.5" ry="9.5" fill="#3d2a20"/>
  <circle cx="82.5" cy="84" r="3" fill="#fff"/><circle cx="122.5" cy="84" r="3" fill="#fff"/>
  <circle cx="66" cy="108" r="8" fill="#ff9fb0" opacity="0.6"/><circle cx="134" cy="108" r="8" fill="#ff9fb0" opacity="0.6"/>
  <ellipse cx="100" cy="103" rx="11" ry="8" fill="#3d2a20"/>
  <g stroke="#3d2a20" stroke-width="3.5" stroke-linecap="round" fill="none"><path d="M100 110 V114"/><path d="M100 114 Q93 122 86 115"/><path d="M100 114 Q107 122 114 115"/></g>
</g>
</svg>
